<mxfile host="app.diagrams.net" agent="Mozilla/5.0 (Windows NT 10.0; Win64; x64) AppleWebKit/537.36 (KHTML, like Gecko) Chrome/134.0.0.0 Safari/537.36" version="26.1.0">
  <diagram name="Side-1" id="0RWjZAzn1R9EOph9x-oY">
    <mxGraphModel dx="1313" dy="711" grid="1" gridSize="10" guides="1" tooltips="1" connect="1" arrows="1" fold="1" page="1" pageScale="1" pageWidth="1169" pageHeight="1654" math="0" shadow="0">
      <root>
        <mxCell id="0" />
        <mxCell id="1" parent="0" />
        <mxCell id="XbhghcuxPMC1ATPwAecC-2" value="" style="triangle;whiteSpace=wrap;html=1;rotation=90;fontFamily=modern;fontSource=https%3A%2F%2Fsourceforge.net%2Fprojects%2Fcm-unicode%2F;" vertex="1" parent="1">
          <mxGeometry x="70" y="285" width="40" height="30" as="geometry" />
        </mxCell>
        <mxCell id="XbhghcuxPMC1ATPwAecC-1" value="" style="endArrow=none;html=1;rounded=0;fontFamily=modern;fontSource=https%3A%2F%2Fsourceforge.net%2Fprojects%2Fcm-unicode%2F;" edge="1" parent="1">
          <mxGeometry width="50" height="50" relative="1" as="geometry">
            <mxPoint x="90" y="380" as="sourcePoint" />
            <mxPoint x="90" y="280" as="targetPoint" />
          </mxGeometry>
        </mxCell>
        <mxCell id="XbhghcuxPMC1ATPwAecC-15" style="edgeStyle=orthogonalEdgeStyle;rounded=0;orthogonalLoop=1;jettySize=auto;html=1;exitX=1;exitY=0.5;exitDx=0;exitDy=0;entryX=0;entryY=0.5;entryDx=0;entryDy=0;fontFamily=modern;fontSource=https%3A%2F%2Fsourceforge.net%2Fprojects%2Fcm-unicode%2F;" edge="1" parent="1" source="XbhghcuxPMC1ATPwAecC-6" target="XbhghcuxPMC1ATPwAecC-11">
          <mxGeometry relative="1" as="geometry" />
        </mxCell>
        <mxCell id="XbhghcuxPMC1ATPwAecC-6" value="" style="shape=sumEllipse;perimeter=ellipsePerimeter;whiteSpace=wrap;html=1;backgroundOutline=1;fontFamily=modern;fontSource=https%3A%2F%2Fsourceforge.net%2Fprojects%2Fcm-unicode%2F;" vertex="1" parent="1">
          <mxGeometry x="267.5" y="355" width="50" height="50" as="geometry" />
        </mxCell>
        <mxCell id="XbhghcuxPMC1ATPwAecC-7" value="" style="endArrow=classic;html=1;rounded=0;fontFamily=modern;fontSource=https%3A%2F%2Fsourceforge.net%2Fprojects%2Fcm-unicode%2F;" edge="1" parent="1" source="XbhghcuxPMC1ATPwAecC-13">
          <mxGeometry width="50" height="50" relative="1" as="geometry">
            <mxPoint x="120" y="380" as="sourcePoint" />
            <mxPoint x="180" y="390" as="targetPoint" />
          </mxGeometry>
        </mxCell>
        <mxCell id="XbhghcuxPMC1ATPwAecC-9" style="edgeStyle=orthogonalEdgeStyle;rounded=0;orthogonalLoop=1;jettySize=auto;html=1;exitX=0.5;exitY=0;exitDx=0;exitDy=0;entryX=0.5;entryY=1;entryDx=0;entryDy=0;fontFamily=modern;fontSource=https%3A%2F%2Fsourceforge.net%2Fprojects%2Fcm-unicode%2F;" edge="1" parent="1" source="XbhghcuxPMC1ATPwAecC-8" target="XbhghcuxPMC1ATPwAecC-6">
          <mxGeometry relative="1" as="geometry" />
        </mxCell>
        <mxCell id="XbhghcuxPMC1ATPwAecC-8" value="&lt;font data-font-src=&quot;https://sourceforge.net/projects/cm-unicode/&quot;&gt;Local Oscillator&lt;/font&gt;" style="rounded=1;whiteSpace=wrap;html=1;fontFamily=modern;fontSource=https%3A%2F%2Fsourceforge.net%2Fprojects%2Fcm-unicode%2F;" vertex="1" parent="1">
          <mxGeometry x="260" y="430" width="65" height="50" as="geometry" />
        </mxCell>
        <mxCell id="XbhghcuxPMC1ATPwAecC-10" value="&lt;font&gt;RF&lt;/font&gt;" style="text;html=1;align=center;verticalAlign=middle;whiteSpace=wrap;rounded=0;fontFamily=modern;fontSource=https%3A%2F%2Fsourceforge.net%2Fprojects%2Fcm-unicode%2F;" vertex="1" parent="1">
          <mxGeometry x="94" y="354" width="60" height="30" as="geometry" />
        </mxCell>
        <mxCell id="XbhghcuxPMC1ATPwAecC-26" style="edgeStyle=orthogonalEdgeStyle;rounded=0;orthogonalLoop=1;jettySize=auto;html=1;exitX=1;exitY=0.5;exitDx=0;exitDy=0;entryX=0.5;entryY=1;entryDx=0;entryDy=0;fontFamily=modern;fontSource=https%3A%2F%2Fsourceforge.net%2Fprojects%2Fcm-unicode%2F;" edge="1" parent="1" source="XbhghcuxPMC1ATPwAecC-11" target="XbhghcuxPMC1ATPwAecC-24">
          <mxGeometry relative="1" as="geometry" />
        </mxCell>
        <mxCell id="XbhghcuxPMC1ATPwAecC-11" value="&lt;font&gt;IF Filter&lt;/font&gt;" style="rounded=0;whiteSpace=wrap;html=1;fontFamily=modern;fontSource=https%3A%2F%2Fsourceforge.net%2Fprojects%2Fcm-unicode%2F;" vertex="1" parent="1">
          <mxGeometry x="357.5" y="350" width="70" height="60" as="geometry" />
        </mxCell>
        <mxCell id="XbhghcuxPMC1ATPwAecC-18" value="" style="endArrow=classic;html=1;rounded=0;fontFamily=modern;fontSource=https%3A%2F%2Fsourceforge.net%2Fprojects%2Fcm-unicode%2F;" edge="1" parent="1" target="XbhghcuxPMC1ATPwAecC-13">
          <mxGeometry width="50" height="50" relative="1" as="geometry">
            <mxPoint x="90" y="380" as="sourcePoint" />
            <mxPoint x="180" y="390" as="targetPoint" />
          </mxGeometry>
        </mxCell>
        <mxCell id="XbhghcuxPMC1ATPwAecC-19" style="edgeStyle=orthogonalEdgeStyle;rounded=0;orthogonalLoop=1;jettySize=auto;html=1;exitX=1;exitY=0.5;exitDx=0;exitDy=0;entryX=0;entryY=0.5;entryDx=0;entryDy=0;fontFamily=modern;fontSource=https%3A%2F%2Fsourceforge.net%2Fprojects%2Fcm-unicode%2F;" edge="1" parent="1" source="XbhghcuxPMC1ATPwAecC-13" target="XbhghcuxPMC1ATPwAecC-6">
          <mxGeometry relative="1" as="geometry" />
        </mxCell>
        <mxCell id="XbhghcuxPMC1ATPwAecC-13" value="" style="triangle;whiteSpace=wrap;html=1;fontFamily=modern;fontSource=https%3A%2F%2Fsourceforge.net%2Fprojects%2Fcm-unicode%2F;" vertex="1" parent="1">
          <mxGeometry x="160" y="350" width="70" height="60" as="geometry" />
        </mxCell>
        <mxCell id="XbhghcuxPMC1ATPwAecC-14" value="&lt;font data-font-src=&quot;https://sourceforge.net/projects/cm-unicode/&quot;&gt;LNA&lt;/font&gt;" style="text;html=1;align=center;verticalAlign=middle;whiteSpace=wrap;rounded=0;fontFamily=modern;fontSource=https%3A%2F%2Fsourceforge.net%2Fprojects%2Fcm-unicode%2F;" vertex="1" parent="1">
          <mxGeometry x="150" y="365" width="60" height="30" as="geometry" />
        </mxCell>
        <mxCell id="XbhghcuxPMC1ATPwAecC-24" value="" style="shape=offPageConnector;whiteSpace=wrap;html=1;rotation=90;fontFamily=modern;fontSource=https%3A%2F%2Fsourceforge.net%2Fprojects%2Fcm-unicode%2F;" vertex="1" parent="1">
          <mxGeometry x="472.5" y="349.5" width="35" height="60" as="geometry" />
        </mxCell>
        <mxCell id="XbhghcuxPMC1ATPwAecC-25" value="&lt;font data-font-src=&quot;https://sourceforge.net/projects/cm-unicode/&quot;&gt;ADC&lt;/font&gt;" style="text;html=1;align=center;verticalAlign=middle;whiteSpace=wrap;rounded=0;fontFamily=modern;fontSource=https%3A%2F%2Fsourceforge.net%2Fprojects%2Fcm-unicode%2F;" vertex="1" parent="1">
          <mxGeometry x="464" y="365" width="60" height="30" as="geometry" />
        </mxCell>
        <mxCell id="XbhghcuxPMC1ATPwAecC-28" value="&lt;font style=&quot;font-size: 19px;&quot; data-font-src=&quot;https://sourceforge.net/projects/cm-unicode/&quot;&gt;(A)&lt;/font&gt;" style="text;html=1;align=center;verticalAlign=middle;whiteSpace=wrap;rounded=0;fontFamily=modern;fontSource=https%3A%2F%2Fsourceforge.net%2Fprojects%2Fcm-unicode%2F;" vertex="1" parent="1">
          <mxGeometry x="260" y="280" width="60" height="30" as="geometry" />
        </mxCell>
        <mxCell id="XbhghcuxPMC1ATPwAecC-32" style="edgeStyle=orthogonalEdgeStyle;rounded=0;orthogonalLoop=1;jettySize=auto;html=1;exitX=1;exitY=0.5;exitDx=0;exitDy=0;entryX=0;entryY=0.5;entryDx=0;entryDy=0;fontFamily=modern;fontSource=https%3A%2F%2Fsourceforge.net%2Fprojects%2Fcm-unicode%2F;" edge="1" parent="1" source="XbhghcuxPMC1ATPwAecC-30" target="XbhghcuxPMC1ATPwAecC-31">
          <mxGeometry relative="1" as="geometry" />
        </mxCell>
        <mxCell id="XbhghcuxPMC1ATPwAecC-30" value="&lt;font data-font-src=&quot;https://sourceforge.net/projects/cm-unicode/&quot;&gt;Baseband Signal&lt;/font&gt;" style="rounded=0;whiteSpace=wrap;html=1;fontFamily=modern;fontSource=https%3A%2F%2Fsourceforge.net%2Fprojects%2Fcm-unicode%2F;" vertex="1" parent="1">
          <mxGeometry x="650" y="349.5" width="70" height="60" as="geometry" />
        </mxCell>
        <mxCell id="XbhghcuxPMC1ATPwAecC-40" style="edgeStyle=orthogonalEdgeStyle;rounded=0;orthogonalLoop=1;jettySize=auto;html=1;exitX=1;exitY=0.5;exitDx=0;exitDy=0;entryX=0;entryY=0.5;entryDx=0;entryDy=0;fontFamily=modern;fontSource=https%3A%2F%2Fsourceforge.net%2Fprojects%2Fcm-unicode%2F;" edge="1" parent="1" source="XbhghcuxPMC1ATPwAecC-31" target="XbhghcuxPMC1ATPwAecC-37">
          <mxGeometry relative="1" as="geometry" />
        </mxCell>
        <mxCell id="XbhghcuxPMC1ATPwAecC-31" value="" style="shape=sumEllipse;perimeter=ellipsePerimeter;whiteSpace=wrap;html=1;backgroundOutline=1;fontFamily=modern;fontSource=https%3A%2F%2Fsourceforge.net%2Fprojects%2Fcm-unicode%2F;" vertex="1" parent="1">
          <mxGeometry x="780" y="355" width="50" height="50" as="geometry" />
        </mxCell>
        <mxCell id="XbhghcuxPMC1ATPwAecC-33" value="&lt;font&gt;IF&lt;/font&gt;" style="text;html=1;align=center;verticalAlign=middle;whiteSpace=wrap;rounded=0;fontFamily=modern;fontSource=https%3A%2F%2Fsourceforge.net%2Fprojects%2Fcm-unicode%2F;" vertex="1" parent="1">
          <mxGeometry x="720" y="355" width="60" height="30" as="geometry" />
        </mxCell>
        <mxCell id="XbhghcuxPMC1ATPwAecC-35" style="edgeStyle=orthogonalEdgeStyle;rounded=0;orthogonalLoop=1;jettySize=auto;html=1;exitX=0.5;exitY=0;exitDx=0;exitDy=0;entryX=0.5;entryY=1;entryDx=0;entryDy=0;fontFamily=modern;fontSource=https%3A%2F%2Fsourceforge.net%2Fprojects%2Fcm-unicode%2F;" edge="1" parent="1" source="XbhghcuxPMC1ATPwAecC-34" target="XbhghcuxPMC1ATPwAecC-31">
          <mxGeometry relative="1" as="geometry" />
        </mxCell>
        <mxCell id="XbhghcuxPMC1ATPwAecC-34" value="&lt;font data-font-src=&quot;https://sourceforge.net/projects/cm-unicode/&quot;&gt;Local Oscillator&lt;/font&gt;" style="rounded=1;whiteSpace=wrap;html=1;fontFamily=modern;fontSource=https%3A%2F%2Fsourceforge.net%2Fprojects%2Fcm-unicode%2F;" vertex="1" parent="1">
          <mxGeometry x="772.5" y="430" width="65" height="50" as="geometry" />
        </mxCell>
        <mxCell id="XbhghcuxPMC1ATPwAecC-37" value="" style="triangle;whiteSpace=wrap;html=1;fontFamily=modern;fontSource=https%3A%2F%2Fsourceforge.net%2Fprojects%2Fcm-unicode%2F;" vertex="1" parent="1">
          <mxGeometry x="880" y="350" width="70" height="60" as="geometry" />
        </mxCell>
        <mxCell id="XbhghcuxPMC1ATPwAecC-38" value="PA" style="text;html=1;align=center;verticalAlign=middle;whiteSpace=wrap;rounded=0;fontFamily=modern;fontSource=https%3A%2F%2Fsourceforge.net%2Fprojects%2Fcm-unicode%2F;" vertex="1" parent="1">
          <mxGeometry x="870" y="364.5" width="60" height="30" as="geometry" />
        </mxCell>
        <mxCell id="XbhghcuxPMC1ATPwAecC-41" value="" style="triangle;whiteSpace=wrap;html=1;rotation=90;fontFamily=modern;fontSource=https%3A%2F%2Fsourceforge.net%2Fprojects%2Fcm-unicode%2F;" vertex="1" parent="1">
          <mxGeometry x="990" y="285" width="40" height="30" as="geometry" />
        </mxCell>
        <mxCell id="XbhghcuxPMC1ATPwAecC-42" value="" style="endArrow=none;html=1;rounded=0;fontFamily=modern;fontSource=https%3A%2F%2Fsourceforge.net%2Fprojects%2Fcm-unicode%2F;" edge="1" parent="1">
          <mxGeometry width="50" height="50" relative="1" as="geometry">
            <mxPoint x="1010" y="380" as="sourcePoint" />
            <mxPoint x="1010" y="280" as="targetPoint" />
          </mxGeometry>
        </mxCell>
        <mxCell id="XbhghcuxPMC1ATPwAecC-43" value="" style="endArrow=none;html=1;rounded=0;fontFamily=modern;fontSource=https%3A%2F%2Fsourceforge.net%2Fprojects%2Fcm-unicode%2F;" edge="1" parent="1">
          <mxGeometry width="50" height="50" relative="1" as="geometry">
            <mxPoint x="950" y="380" as="sourcePoint" />
            <mxPoint x="1010" y="380" as="targetPoint" />
          </mxGeometry>
        </mxCell>
        <mxCell id="XbhghcuxPMC1ATPwAecC-44" value="&lt;font data-font-src=&quot;https://sourceforge.net/projects/cm-unicode/&quot;&gt;RF&lt;/font&gt;" style="text;html=1;align=center;verticalAlign=middle;whiteSpace=wrap;rounded=0;fontFamily=modern;fontSource=https%3A%2F%2Fsourceforge.net%2Fprojects%2Fcm-unicode%2F;" vertex="1" parent="1">
          <mxGeometry x="940" y="355" width="60" height="30" as="geometry" />
        </mxCell>
        <mxCell id="XbhghcuxPMC1ATPwAecC-45" value="&lt;font style=&quot;font-size: 19px;&quot; data-font-src=&quot;https://sourceforge.net/projects/cm-unicode/&quot;&gt;(B)&lt;/font&gt;" style="text;html=1;align=center;verticalAlign=middle;whiteSpace=wrap;rounded=0;fontFamily=modern;fontSource=https%3A%2F%2Fsourceforge.net%2Fprojects%2Fcm-unicode%2F;" vertex="1" parent="1">
          <mxGeometry x="790" y="285" width="60" height="30" as="geometry" />
        </mxCell>
        <mxCell id="XbhghcuxPMC1ATPwAecC-46" value="RX" style="text;html=1;align=center;verticalAlign=middle;whiteSpace=wrap;rounded=0;fontFamily=modern;fontSource=https%3A%2F%2Fsourceforge.net%2Fprojects%2Fcm-unicode%2F;" vertex="1" parent="1">
          <mxGeometry x="94" y="280" width="60" height="30" as="geometry" />
        </mxCell>
        <mxCell id="XbhghcuxPMC1ATPwAecC-47" value="TX" style="text;html=1;align=center;verticalAlign=middle;whiteSpace=wrap;rounded=0;fontFamily=modern;fontSource=https%3A%2F%2Fsourceforge.net%2Fprojects%2Fcm-unicode%2F;" vertex="1" parent="1">
          <mxGeometry x="950" y="285" width="60" height="30" as="geometry" />
        </mxCell>
      </root>
    </mxGraphModel>
  </diagram>
</mxfile>
